<?xml version="1.0" standalone="no"?>
<!DOCTYPE svg PUBLIC "-//W3C//DTD SVG 20010904//EN"
 "http://www.w3.org/TR/2001/REC-SVG-20010904/DTD/svg10.dtd">
<svg version="1.0" xmlns="http://www.w3.org/2000/svg"
 width="520.000000pt" height="653.000000pt" viewBox="0 0 520.000000 653.000000"
 preserveAspectRatio="xMidYMid meet">

<g transform="translate(0.000000,653.000000) scale(0.100000,-0.100000)"
fill="#000000" stroke="none">
<path d="M1580 6143 c-443 -36 -806 -66 -808 -68 -3 -3 -19 -152 -24 -229 -3
-46 -1 -51 22 -57 l25 -7 -25 -1 -26 -1 -57 -547 c-32 -302 -85 -843 -120
-1203 l-62 -655 3 -1220 c2 -747 7 -1234 13 -1257 13 -52 57 -85 121 -92 29
-4 352 -36 718 -72 366 -36 765 -76 887 -90 123 -13 225 -24 228 -24 3 0 5 7
5 15 0 8 -7 15 -17 15 -9 0 1 13 26 31 24 17 44 29 46 27 1 -2 8 -13 14 -25
25 -48 35 -50 772 -103 387 -28 810 -59 939 -69 216 -16 272 -16 240 4 -7 5
17 23 62 47 94 52 106 63 135 123 l24 50 -7 350 c-3 193 -1 553 5 800 l10 450
-94 954 c-52 525 -95 963 -95 973 0 13 -8 18 -25 18 -14 0 -25 5 -25 10 0 6
12 10 26 10 22 0 25 4 21 23 -3 12 -9 59 -13 103 -3 45 -10 87 -14 94 -5 9
-202 1 -831 -35 -453 -25 -838 -48 -856 -51 l-31 -5 -11 -87 c-26 -203 -93
-679 -99 -700 -4 -13 -42 473 -85 1080 -43 607 -80 1113 -83 1126 -3 14 -12
22 -24 22 -11 0 -20 7 -20 15 0 9 9 15 21 15 22 0 22 2 15 108 -3 59 -9 128
-13 155 l-6 47 -51 -1 c-28 -1 -413 -30 -856 -66z m856 10 c-3 -21 -8 -67 -11
-103 -10 -104 -14 -120 -36 -120 -14 0 -19 -7 -19 -30 0 -20 5 -30 15 -30 8 0
15 -8 15 -19 0 -10 -42 -583 -94 -1272 l-95 -1254 -10 -720 c-6 -396 -12 -974
-13 -1285 -3 -559 -3 -565 18 -607 14 -27 17 -43 10 -43 -7 0 -210 20 -451 45
-242 24 -604 61 -805 80 -393 39 -389 38 -415 100 -10 23 -15 294 -20 1200
l-7 1170 71 765 c39 421 93 976 121 1234 27 257 50 474 50 482 0 8 10 14 25
14 21 0 25 5 25 31 0 26 -3 29 -21 24 -21 -7 -21 -6 -14 111 4 66 10 122 14
126 5 6 1505 132 1624 137 28 1 29 -1 23 -36z m49 -122 c7 -109 7 -111 -14
-111 -17 0 -21 -6 -21 -35 0 -30 3 -35 23 -35 l23 0 83 -1172 c77 -1074 83
-1181 73 -1268 -7 -52 -39 -309 -72 -570 l-61 -475 6 -435 c3 -239 8 -604 11
-811 l6 -376 -59 -42 c-54 -38 -63 -41 -124 -41 -71 0 -71 0 -138 85 l-23 30
6 720 c4 396 11 977 17 1290 l10 570 95 1255 c52 690 94 1261 94 1268 0 6 -9
12 -20 12 -11 0 -20 5 -20 10 0 6 11 10 24 10 26 0 27 4 41 170 4 36 9 76 12
90 l6 25 7 -26 c4 -15 11 -77 15 -138z m1972 -1558 c-3 -21 -9 -62 -13 -90 -6
-47 -9 -53 -30 -53 -19 0 -24 -5 -24 -25 0 -16 6 -25 15 -25 10 0 15 -10 15
-27 0 -16 -41 -413 -90 -883 -103 -972 -103 -977 -119 -2135 -8 -600 -8 -614
24 -687 6 -15 2 -16 -27 -12 -18 2 -384 29 -812 60 -429 30 -788 59 -797 65
-43 23 -43 19 -52 889 l-8 835 65 510 c36 281 91 689 123 908 57 389 59 398
80 394 16 -3 22 2 26 20 3 19 0 23 -20 23 -25 0 -25 1 -18 63 3 34 8 73 11 87
l5 26 792 45 c436 26 807 47 826 48 33 1 34 1 28 -36z m50 -65 c9 -88 9 -88
-14 -88 -19 0 -23 -5 -23 -30 0 -25 4 -30 25 -30 14 0 25 -3 25 -6 0 -10 159
-1610 175 -1760 12 -118 13 -210 4 -609 -6 -259 -8 -622 -4 -808 l7 -339 -27
-53 c-24 -51 -31 -56 -125 -104 -89 -46 -104 -51 -165 -51 -59 0 -72 4 -110
31 -24 17 -46 41 -49 54 -3 12 -1 314 4 671 17 1170 10 1047 116 2061 52 496
94 913 94 927 0 15 -7 26 -17 29 -14 4 -13 5 4 6 22 1 26 10 38 96 14 96 17
107 25 99 4 -5 12 -48 17 -96z"/>
</g>
</svg>
