<?xml version="1.0" encoding="UTF-8"?>
<svg id="Capa_1" data-name="Capa 1" xmlns="http://www.w3.org/2000/svg" viewBox="0 0 169.98 186.28">
  <g>
    <path fill="#ffffff" stroke="#1d1d1b" stroke-miterlimit="10" stroke-width="0.75"
      d="M85.76,162.64c-6.32-.4-18.44-3.1-23.82-2.99-1.02,0-4.68-1.12-12.42-1.64-4.47-.41-8.66-.36-13.35-.54-2.58-1.66-2.84-6.41-2.92-9.32-.21-8.05-1.9-32.78-.18-47.17.13-1.04.17-1.38.2-1.68.02-2.35.5-36.97,5.7-59.83.93-2.97-.07-7.19.38-9.76,12.48-1,38.53-3.24,47.98-3.98.62,0,.6-.4.6,1.44,0,2.23,0,5.14,0,7.26.16,1.12.82,91.12,1.18,116.25-.96,3.88-1.16,8.48-3.29,11.89l-.06.08Z"/>
    
    <path fill="#ffffff" stroke="#1d1d1b" stroke-miterlimit="10" stroke-width="0.75"
      d="M87.93,34.52c-1.84,14.21-3.45,28.81-5.08,43.13-.29,4.87-.15,8.41-.28,14.11-.2,22.61-.69,66.6,1.06,68.95.13.25.68,1.55,1.85,1.72.23.04.48.02.71-.02,1.77-.54,3.84-1.96,5.2-3.45.64-.67.34-1.3.5-2.26.43-5.77,1.73-23.81,1.58-29.67-.23-11.31-.53-28.04-.75-39.48-.19-12.23-1.58-23.68-2.11-35.81-.54-5.68-.37-11.96-2.62-17.22h-.05Z"/>
    
    <path fill="none" stroke="#1d1d1b" stroke-miterlimit="10" stroke-width="0.75" opacity="0.21"
      d="M87.93,34.41s-2.45,115.49,0,119.09l-4.33,6.78"/>
    
    <g>
      <path fill="#ffffff" stroke="#1d1d1b" stroke-miterlimit="10" stroke-width="0.75"
        d="M136.36,167.75c-5.95-.31-17.37-2.37-22.44-2.29-.97,0-4.41-.85-11.7-1.25-4.21-.31-8.16-.27-12.57-.42-2.43-1.27-2.67-4.9-2.75-7.12-.2-6.16-1.79-25.06-.17-36.07.12-.8.16-1.05.18-1.29.02-1.8.47-28.26,5.37-45.75.88-2.27-.07-5.5.36-7.47,11.76-.76,36.29-2.48,45.2-3.04.58,0,.57-.31.57,1.1,0,1.7,0,3.93,0,5.55.15.85.77,69.67,1.11,88.89-.9,2.96-1.09,6.48-3.1,9.09l-.06.06Z"/>
      
      <line x1="92.7" y1="72.13" x2="138.4" y2="69.7" fill="none" stroke="#1d1d1b" stroke-miterlimit="10" stroke-width="0.75" opacity="0.13"/>
      
      <path d="M115.06,64.62s-4.63,64.1,0,100.51" fill="none" stroke="#1d1d1b" stroke-miterlimit="10" stroke-width="0.75" opacity="0.13"/>
      
      <path d="M109.17,164.8s-6.34-73.02,1.26-99.87" fill="none" stroke="#1d1d1b" stroke-miterlimit="10" stroke-width="0.75" opacity="0.13"/>
      
      <path fill="#ffffff" stroke="#1d1d1b" stroke-miterlimit="10" stroke-width="0.75"
        d="M138.4,69.78c-1.73,10.87-3.25,22.03-4.78,32.98-.27,3.73-.14,6.43-.26,10.79-.19,17.29-.65,50.92,1,52.72.12.19.64,1.19,1.74,1.31.22.03.46.02.67-.01,1.67-.41,3.61-1.5,4.9-2.64.6-.51.32-.99.47-1.73.41-4.42,1.63-18.21,1.48-22.69-.22-8.65-.5-21.44-.71-30.19-.18-9.35-1.48-18.11-1.99-27.38-.51-4.34-.35-9.15-2.47-13.16h-.05Z"/>
      
      <path fill="none" stroke="#1d1d1b" stroke-miterlimit="10" stroke-width="0.75" opacity="0.21"
        d="M138.4,69.7s-2.31,88.3,0,91.06l-4.08,5.18"/>
      
      <line x1="142.18" y1="162.53" x2="138.4" y2="160.76" fill="none" stroke="#1d1d1b" stroke-miterlimit="10" stroke-width="0.75" opacity="0.21"/>
    </g>
    
    <line x1="38.9" y1="36.1" x2="87.41" y2="32.93" fill="none" stroke="#1d1d1b" stroke-miterlimit="10" stroke-width="0.75" opacity="0.13"/>
  </g>
  
  <line x1="129.91" y1="141.38" x2="126.49" y2="139.41" fill="none" stroke="#1d1d1b" stroke-miterlimit="10" stroke-width="0.25" opacity="0.21"/>
</svg>
