<?xml version="1.0" standalone="no"?>
<!DOCTYPE svg PUBLIC "-//W3C//DTD SVG 20010904//EN"
 "http://www.w3.org/TR/2001/REC-SVG-20010904/DTD/svg10.dtd">
<svg version="1.0" xmlns="http://www.w3.org/2000/svg"
 width="608.000000pt" height="644.000000pt" viewBox="0 0 608.000000 644.000000"
 preserveAspectRatio="xMidYMid meet">

<g transform="translate(0.000000,644.000000) scale(0.100000,-0.100000)"
fill="#000000" stroke="none">
<path d="M2155 6094 c-511 -40 -958 -73 -992 -73 -86 -1 -93 -11 -92 -119 0
-48 4 -109 7 -137 7 -48 9 -50 40 -53 28 -3 31 -6 21 -18 -6 -8 -25 -14 -41
-14 l-30 0 7 -122 c11 -184 9 -415 -4 -487 -7 -35 -41 -152 -76 -260 -149
-460 -233 -799 -304 -1227 -82 -496 -119 -997 -107 -1470 7 -295 15 -413 52
-772 31 -293 27 -361 -25 -465 -16 -34 -29 -63 -27 -64 5 -6 2103 -263 2144
-263 26 0 92 14 147 30 55 16 104 30 109 30 4 0 1 -12 -9 -26 -9 -14 -15 -27
-13 -29 2 -1 396 -42 877 -89 l873 -87 352 81 c193 45 353 84 355 86 3 2 -5
14 -16 27 -31 34 -33 61 -18 207 86 823 -2 1685 -253 2480 -49 153 -49 156
-43 250 3 52 5 137 3 188 l-3 92 -30 0 c-38 0 -34 24 4 28 l27 3 0 100 0 99
-57 -6 c-131 -11 -1546 -95 -1549 -91 -3 2 -20 94 -39 203 -73 425 -224 1092
-244 1080 -4 -3 -4 21 0 52 4 31 8 171 8 310 l1 252 -35 0 c-32 0 -35 2 -35
30 0 28 3 30 35 30 l35 0 0 145 0 145 -62 -1 c-35 -1 -481 -34 -993 -75z
m1035 -69 l0 -125 -35 0 -35 0 0 -50 0 -50 35 0 35 0 0 -235 c0 -287 -12 -380
-86 -671 -145 -572 -232 -1042 -293 -1589 -41 -365 -53 -574 -58 -1052 -6
-508 2 -743 39 -1118 12 -121 22 -274 22 -340 1 -103 -2 -127 -21 -167 -16
-35 -29 -49 -50 -55 -23 -6 -2027 235 -2110 254 -20 4 -21 7 -9 26 56 89 63
238 28 542 -37 311 -46 499 -46 880 0 887 124 1658 405 2523 85 260 91 296 91
502 0 96 -3 214 -7 262 l-7 87 26 7 c27 6 56 38 56 61 0 8 -13 13 -34 13 l-34
0 -7 73 c-4 39 -5 99 -3 132 l3 60 60 3 c33 2 481 36 995 76 514 41 959 74
988 75 l52 1 0 -125z m68 -1092 c75 -309 128 -566 172 -833 11 -69 23 -137 26
-152 5 -25 3 -28 -20 -28 -13 0 -36 -4 -50 -10 -25 -9 -26 -13 -26 -89 0 -94
5 -111 34 -111 19 -1 19 -2 3 -11 -9 -5 -22 -7 -27 -4 -7 4 -8 -53 -4 -167 8
-203 6 -209 -85 -438 -214 -531 -313 -1033 -313 -1585 -1 -241 10 -405 38
-590 18 -115 21 -252 7 -266 -9 -9 -195 -68 -216 -69 -4 0 -1 13 8 30 35 68
39 161 16 390 -78 782 -78 1476 -1 2230 57 556 154 1088 301 1660 49 190 68
250 79 250 5 0 31 -93 58 -207z m1812 -1012 c0 -79 0 -80 -27 -83 -23 -2 -29
-8 -31 -35 -3 -31 -1 -33 27 -33 l31 0 1 -87 c2 -254 -3 -285 -85 -545 -246
-784 -331 -1612 -240 -2352 24 -195 28 -279 14 -320 -24 -74 39 -76 -904 18
-467 47 -850 87 -852 89 -2 2 5 26 17 52 19 43 21 60 16 149 -3 56 -13 148
-21 206 -30 203 -41 498 -28 721 30 509 117 899 308 1382 41 103 80 213 85
245 7 36 9 111 4 205 -7 140 -6 147 12 147 22 0 43 18 43 37 0 8 -12 13 -30
13 l-31 0 3 83 3 82 75 3 c66 3 1565 97 1598 101 9 1 12 -21 12 -78z m63 -733
c202 -670 291 -1368 259 -2031 -7 -138 -19 -312 -27 -385 -13 -116 -13 -139 0
-175 8 -23 13 -42 12 -43 -5 -3 -612 -142 -614 -140 -1 1 5 22 13 46 18 49 16
88 -10 305 -93 776 -7 1616 246 2393 32 100 63 182 67 182 4 0 29 -69 54 -152z"/>
</g>
</svg>
