<?xml version="1.0" standalone="no"?>
<!DOCTYPE svg PUBLIC "-//W3C//DTD SVG 20010904//EN"
 "http://www.w3.org/TR/2001/REC-SVG-20010904/DTD/svg10.dtd">
<svg version="1.0" xmlns="http://www.w3.org/2000/svg"
 width="803.000000pt" height="673.000000pt" viewBox="0 0 803.000000 673.000000"
 preserveAspectRatio="xMidYMid meet">

<g transform="translate(0.000000,673.000000) scale(0.100000,-0.100000)"
fill="#000000" stroke="none">
<path d="M6409 6034 c-264 -162 -622 -412 -1249 -874 -206 -152 -476 -351
-600 -441 -124 -91 -389 -286 -590 -434 -201 -148 -961 -685 -1690 -1193 -729
-508 -1340 -936 -1358 -949 l-34 -25 38 -39 c21 -21 36 -40 33 -42 -2 -2 -23
-18 -46 -36 l-43 -32 -48 27 -48 27 -87 -58 c-48 -32 -84 -62 -80 -66 4 -4
563 -261 1240 -572 l1233 -566 105 60 c89 51 105 64 105 85 0 23 14 56 38 92
7 11 19 9 60 -12 l51 -26 99 60 c55 33 103 60 106 60 3 0 273 -149 599 -331
325 -182 609 -340 629 -352 l38 -21 70 48 c58 40 70 53 70 75 0 15 6 35 13 45
13 17 15 17 46 2 l32 -17 93 73 c52 40 145 116 208 168 161 136 316 256 443
343 101 69 577 357 1125 680 174 103 232 143 303 210 l88 82 -144 1203 c-79
661 -147 1205 -150 1208 -7 7 -69 -35 -192 -131 -52 -41 -95 -71 -95 -66 0 5
-58 410 -130 901 -71 490 -130 896 -130 901 0 20 -31 6 -151 -67z m266 -862
c69 -475 125 -871 125 -881 0 -12 -67 -76 -173 -169 -159 -137 -631 -558
-1163 -1037 -116 -104 -601 -521 -1076 -925 l-865 -735 24 -29 24 -29 -27 -28
-27 -29 -34 21 -34 21 -55 -47 -55 -48 133 -74 c73 -42 137 -79 141 -83 8 -7
-155 -110 -174 -110 -5 0 -32 11 -59 25 l-50 25 -30 -47 c-16 -27 -30 -59 -30
-74 0 -21 -15 -33 -96 -81 l-95 -55 -592 272 c-326 150 -864 397 -1197 550
-333 152 -616 283 -629 290 -24 12 -23 13 44 58 l68 46 49 -25 c27 -14 54 -21
61 -17 7 3 35 24 64 45 l51 39 -40 37 -40 38 93 65 c1531 1066 2623 1833 2884
2024 182 133 555 407 830 610 1118 823 1455 1061 1762 1244 l48 28 7 -26 c5
-14 64 -414 133 -889z m563 -1889 l143 -1188 -86 -81 c-70 -66 -124 -104 -288
-200 -435 -254 -1056 -629 -1132 -682 -124 -86 -274 -203 -460 -357 -93 -78
-194 -159 -224 -180 l-53 -38 -34 18 c-19 10 -36 16 -38 14 -12 -14 -36 -71
-36 -87 0 -11 -24 -35 -60 -61 l-60 -42 -738 412 c-405 226 -752 420 -770 431
l-32 20 42 33 42 34 28 -21 29 -20 45 37 45 37 -27 29 c-24 25 -26 31 -14 43
8 7 391 332 850 722 824 699 936 797 1686 1469 409 367 609 542 774 676 121
98 213 169 220 169 3 0 70 -534 148 -1187z"/>
</g>
</svg>
