<?xml version="1.0" standalone="no"?>
<!DOCTYPE svg PUBLIC "-//W3C//DTD SVG 20010904//EN"
 "http://www.w3.org/TR/2001/REC-SVG-20010904/DTD/svg10.dtd">
<svg version="1.0" xmlns="http://www.w3.org/2000/svg"
 width="555.000000pt" height="685.000000pt" viewBox="0 0 555.000000 685.000000"
 preserveAspectRatio="xMidYMid meet">

<g transform="translate(0.000000,685.000000) scale(0.100000,-0.100000)"
fill="#000000" stroke="none">
<path d="M1600 6466 l-965 -81 -5 -30 c-4 -17 -4 -91 -2 -165 4 -123 2 -148
-27 -285 -62 -291 -114 -657 -151 -1055 -36 -395 -70 -987 -70 -1231 0 -64 -8
-181 -17 -260 -35 -286 -15 -1820 28 -2099 11 -75 60 -184 92 -205 17 -10 91
-17 297 -24 290 -12 479 -28 669 -60 64 -11 177 -24 251 -30 74 -6 250 -29
390 -51 390 -62 475 -70 522 -52 l39 15 27 -32 c36 -43 75 -50 257 -51 189 0
423 -15 630 -40 88 -10 225 -24 305 -30 80 -6 246 -24 370 -40 410 -53 426
-54 494 -30 65 22 140 67 174 103 21 22 24 46 47 313 45 547 46 568 25 1415
-14 546 -26 852 -39 1009 -25 280 -46 528 -66 780 -18 219 -36 317 -71 404
-21 52 -24 75 -24 191 0 94 -4 135 -12 143 -9 6 -313 -11 -933 -54 -506 -35
-935 -63 -952 -64 l-33 0 -1 -132 -1 -133 -18 225 c-10 124 -23 308 -30 410
-34 567 -48 699 -88 829 -24 76 -27 108 -32 281 -4 107 -7 196 -8 198 -5 7
-188 -7 -1072 -82z m1060 -93 c0 -87 -4 -194 -10 -238 -5 -44 -32 -267 -59
-495 -28 -228 -73 -615 -101 -860 l-50 -445 -10 -1040 c-9 -1061 -1 -1974 20
-2214 11 -124 26 -178 58 -214 17 -19 16 -20 -43 -13 -33 4 -188 27 -345 52
-156 24 -343 49 -415 55 -71 6 -184 19 -250 30 -199 32 -386 48 -675 60 -305
12 -294 9 -330 84 -37 76 -48 173 -67 565 -22 479 -25 1458 -5 1615 7 55 15
156 18 225 25 676 39 929 75 1315 36 401 88 758 150 1050 27 127 30 154 27
297 -2 86 -1 158 2 161 6 5 1888 164 1963 166 l47 1 0 -157z m65 -448 c13 -82
35 -342 50 -605 3 -58 17 -259 31 -448 l25 -342 -35 -153 c-81 -353 -142 -846
-166 -1347 -11 -238 -25 -449 -40 -590 -23 -223 7 -1372 40 -1505 14 -59 13
-62 -24 -75 -75 -24 -119 36 -136 186 -24 223 -34 1130 -22 2229 l11 1090 65
565 c81 693 135 1135 143 1175 6 28 7 27 25 -30 10 -33 25 -100 33 -150z
m2035 -1080 c0 -102 -8 -185 -31 -333 -16 -108 -62 -417 -101 -687 l-70 -490
-8 -495 c-17 -1012 -9 -1866 20 -2072 6 -44 18 -84 30 -100 l21 -28 -31 0
c-16 0 -173 18 -348 39 -174 22 -366 42 -427 46 -60 4 -139 11 -175 16 -151
23 -371 40 -605 45 -137 3 -267 10 -287 15 -43 11 -74 49 -95 117 -15 50 -46
552 -58 957 -6 217 6 552 25 683 5 37 14 182 20 322 26 628 92 1168 190 1567
35 143 40 175 40 281 l0 120 83 7 c45 3 465 32 932 64 468 32 856 59 863 60 9
1 12 -32 12 -134z m63 -325 c9 -41 23 -163 32 -270 21 -258 42 -506 66 -780
14 -158 25 -460 39 -1009 21 -848 20 -869 -25 -1415 l-24 -290 -28 -23 c-46
-37 -163 -93 -197 -93 -36 0 -72 28 -86 66 -25 64 -32 269 -37 994 -2 421 0
965 6 1210 l9 445 71 490 c39 270 83 567 98 660 l27 170 17 -40 c10 -22 24
-74 32 -115z"/>
</g>
</svg>
