<?xml version="1.0" encoding="UTF-8"?>
<svg id="Capa_1" data-name="Capa 1" xmlns="http://www.w3.org/2000/svg" viewBox="0 0 169.98 186.28">
  <g>
    <path
      fill="#ffffff"
      stroke="#1d1d1b"
      stroke-width="0.75"
      stroke-linecap="round"
      stroke-linejoin="round"
      d="M23.67,156.23c21.52,2.44,62.09,5.11,84.37,9.68,1.58-6.04,0-136.94.54-145.34.01-.35-.05-.56-.42-.52-.8.06-4.07.53-9.03,1.17-17.97,2.36-69.42,9.13-74.85,9.85-1.02.09-.71.65-.76,1.68.05,22.08-.18,94.94.12,123.48h.02Z"/>
    <path
      fill="none"
      opacity="0.16"
      stroke="#1d1d1b"
      stroke-width="0.75"
      stroke-miterlimit="10"
      d="M25.95,156c-.02-6.76,0-113.04.01-119.16.04-.78.99-.43,2.38-.74,20.29-2.5,54.75-6.81,74.97-9.29.68-.07.74-.03.75.48.11,6.55.75,107.09,1.02,137.63"/>
  </g>
  <g>
    <path
      fill="#ffffff"
      stroke="#1d1d1b"
      stroke-width="0.75"
      stroke-linecap="round"
      stroke-linejoin="round"
      d="M79.09,164.99c18.07,1.77,47.43,3.19,65.88,5.97,1.11.16,1.46.45,1.5-.48,0-7.58.02-85.69,0-90.91,0-.35-.19-.46-.52-.44-6.37.67-17.44,1.78-26.18,2.72-12.95,1.35-26.16,2.73-38.97,4.07-2.06.23-1.84.01-1.86,1.83,0,4.77,0,9.29,0,14.25.13,19.59-.25,44.38.14,62.97l.02.02Z"/>
    <path
      fill="none"
      opacity="0.16"
      stroke="#1d1d1b"
      stroke-width="0.75"
      stroke-miterlimit="10"
      d="M80.86,164.86c-.03-5.79.02-67.04,0-74.5,0-.43-.04-.79.39-.92.37-.1,1.19-.15,2.53-.29,16.3-1.6,41.56-4.1,57.77-5.69.89-.03,1.23-.29,1.33.39.09,4.97.61,66.63.82,86.64"/>
  </g>
</svg>
