<?xml version="1.0" encoding="UTF-8"?>
<svg id="Capa_1" data-name="Capa 1" xmlns="http://www.w3.org/2000/svg" viewBox="0 0 169.98 186.28">
  <g>
    <path fill="#ffffff" stroke="#1d1d1b" stroke-width="0.75" stroke-miterlimit="10" d="M83.85,19.06h.62l.64,7.73h-1.26v1.49h1.26l3.83,53.62,1.38,19.15-.43,30.32v18.09s.53,12.24-.11,13.83-.53,2.66-2.02,3.83-4.58,3.3-4.58,3.3l-3.99.05-6.33-7.08v-60.86l-1.92-55.11,3.83-18.73,3.3-6.49,5.77-3.15Z"/>
    <path fill="none" stroke="#1d1d1b" stroke-width="0.75" stroke-opacity="0.24" stroke-miterlimit="10" d="M83.04,19.66c.86,13.43,4.53,61.84,5.61,82.94.13,9.83.54,21.03.45,31.27-.1,7.69-.42,15.35-.72,23.06-.1,1.81-.26,3.64-.51,5.43-.19,1.76-.62,3.51-2.2,4.42-1.84,1.22-4.83,2.43-7.26,2.8"/>
    <line fill="none" stroke="#1d1d1b" stroke-width="0.75" stroke-linecap="round" stroke-linejoin="round" stroke-opacity="0.24" x1="80.64" y1="56.61" x2="88.01" y2="102.55"/>
    <path fill="#ffffff" stroke="#1d1d1b" stroke-width="0.75" stroke-miterlimit="10" d="M84.47,171.04s-1.76,0-5.27-.56-2.63-7.58-2.63-7.58l.4-42.77.48-24.18,5.16-68.25h-1.01v-1.12h1.22l.8-7.66-45.67,3.62-.64,7.18,1.36-.08-.16,1.2-1.2-.16-3.03,28.73-3.75,40.94.4,48.76.08,13.41s0,3.35,2.95,3.51,50.51,5.03,50.51,5.03Z"/>
  </g>
  <g>
    <path fill="#ffffff" stroke="#1d1d1b" stroke-width="0.75" stroke-miterlimit="10" d="M139.13,64.96h.62l.64,5.57h-1.26v1.07h1.26l3.83,38.66,1.38,13.81-.43,21.86v13.04s.53,8.82-.11,9.97-.53,1.92-2.02,2.76-4.58,2.38-4.58,2.38l-3.99.04-6.33-5.1v-43.87l-1.92-39.73,3.83-13.5,3.3-4.68,5.77-2.27Z"/>
    <path fill="none" stroke="#1d1d1b" stroke-width="0.75" stroke-opacity="0.24" stroke-miterlimit="10" d="M138.32,65.4c.86,9.68,4.53,44.58,5.61,59.8.13,7.09.54,15.16.45,22.54-.1,5.54-.42,11.07-.72,16.62-.1,1.3-.26,2.63-.51,3.91-.19,1.27-.62,2.53-2.2,3.19-1.84.88-4.83,1.75-7.26,2.02"/>
    <line fill="none" stroke="#1d1d1b" stroke-width="0.75" stroke-linecap="round" stroke-linejoin="round" stroke-opacity="0.24" x1="135.92" y1="92.03" x2="143.29" y2="125.15"/>
    <path fill="#ffffff" stroke="#1d1d1b" stroke-width="0.75" stroke-miterlimit="10" d="M139.75,174.53s-1.76,0-5.27-.4-2.63-5.47-2.63-5.47l.4-30.83.48-17.43,5.16-49.21h-1.01v-.81h1.22l.8-5.52-45.67,2.61-.64,5.18,1.36-.06-.16.86-1.2-.12-3.03,20.71-3.75,29.51.4,35.15.08,9.66s0,2.42,2.95,2.53,50.51,3.62,50.51,3.62Z"/>
  </g>
</svg>
