<?xml version="1.0" standalone="no"?>
<!DOCTYPE svg PUBLIC "-//W3C//DTD SVG 20010904//EN"
 "http://www.w3.org/TR/2001/REC-SVG-20010904/DTD/svg10.dtd">
<svg version="1.0" xmlns="http://www.w3.org/2000/svg"
 width="870.000000pt" height="552.000000pt" viewBox="0 0 870.000000 552.000000"
 preserveAspectRatio="xMidYMid meet">

<g transform="translate(0.000000,552.000000) scale(0.100000,-0.100000)"
fill="#000000" stroke="none">
<path d="M3400 4954 c-1521 -139 -2771 -253 -2777 -254 -10 0 -13 -31 -13
-120 l0 -120 36 0 c21 0 33 -4 29 -10 -3 -5 -19 -10 -36 -10 l-29 0 0 -1593 0
-1592 -80 -80 -80 -80 0 -151 c0 -130 3 -158 20 -197 23 -52 21 -52 205 -62
55 -3 341 -19 635 -35 970 -54 1978 -99 2680 -120 195 -6 513 -20 705 -30 821
-46 1639 -80 1902 -80 l163 0 417 86 418 86 158 -14 c86 -7 157 -12 157 -10 0
2 -50 62 -110 133 l-110 128 7 1151 6 1150 -41 0 c-23 0 -42 5 -42 10 0 6 18
10 40 10 37 0 39 2 46 35 3 20 3 39 0 42 -4 4 -343 -23 -754 -60 -411 -38
-752 -68 -758 -67 -9 0 -10 249 -6 965 l5 965 -66 0 c-68 0 -87 10 -67 35 8
10 32 15 70 15 l57 0 7 38 c11 67 8 92 -11 91 -10 -1 -1262 -115 -2783 -255z
m2780 207 c0 -54 -8 -61 -64 -61 -43 0 -57 -5 -76 -25 -23 -24 -23 -25 -5 -45
14 -16 31 -20 78 -20 l60 0 -5 -956 c-3 -525 -8 -957 -10 -959 -2 -2 -404 -40
-893 -85 -490 -44 -896 -82 -902 -85 -10 -3 -13 -226 -13 -1031 l0 -1027 -46
-54 -46 -54 4 -110 3 -111 -130 6 c-71 3 -213 8 -315 11 -560 17 -1641 67
-2510 115 -294 17 -582 32 -640 36 -160 8 -164 9 -183 49 -14 28 -17 66 -17
182 l0 146 80 83 80 84 0 1585 0 1585 23 0 c13 0 32 6 42 14 16 12 17 16 6 30
-7 9 -26 16 -42 16 l-29 0 0 100 c0 55 3 100 8 101 19 1 5519 507 5530 508 7
0 12 -11 12 -28z m1508 -1968 c-2 -12 -14 -19 -33 -21 -71 -8 -78 -62 -7 -62
l35 0 -7 -1193 c-6 -1062 -5 -1197 9 -1236 8 -24 14 -45 13 -46 -2 -1 -28 -7
-58 -13 -30 -6 -241 -49 -468 -96 l-413 -86 -159 0 c-268 0 -1081 34 -1920 81
-316 17 -377 23 -387 37 -9 10 -13 50 -13 112 l0 96 45 44 45 44 0 952 c0 951
0 953 20 956 27 4 28 21 1 33 -17 8 -21 18 -21 62 0 29 3 53 8 54 4 0 729 67
1612 148 883 82 1627 149 1653 150 41 1 48 -2 45 -16z m92 -2499 c45 -52 80
-97 77 -100 -8 -8 -167 8 -167 17 0 5 7 9 15 9 8 0 15 4 15 9 0 5 -7 28 -15
51 -14 39 -21 110 -11 110 2 0 41 -43 86 -96z"/>
</g>
</svg>
