<?xml version="1.0" encoding="UTF-8"?>
<svg id="Capa_1" data-name="Capa 1" xmlns="http://www.w3.org/2000/svg" viewBox="0 0 169.98 186.28">
  <path fill="#ffffff" stroke="#1d1d1b" stroke-miterlimit="10" stroke-width="0.75" d="M24.49,160.06c.28-14.16.63-40.04.94-56.91.42-25.08.82-49.14.83-49.86.38-.13,1.31.18,1.6-.21.45-2.1-.83-.88-1.47-1.53-.01-.66.02-3.99.02-4.73.54-2.28,4.34-2.34,6.34-2.7,3.77-.68,59.06-12.94,72.3-15.72,4.57-1.37,3.48,3.32,3.58,6.15-.11.6-1.5.3-1.89.69-.48,1.49.76,1.22,1.73,1.23.5,1.2,1.99,121.94,2.18,123.44-.16.77.36,2.76-.34,3.44-1.63,1.41-4.54,1.19-6.69,1.08-11.73-.09-44.04.17-58.8-.55-8.67-.32-15.06-.72-17.58-1.44-1.32.21-2.91-.79-2.76-2.34v-.03Z"/>
  <line fill="none" opacity="0.19" stroke="#1d1d1b" stroke-miterlimit="10" stroke-width="0.75" x1="26.27" y1="161.93" x2="29.29" y2="45.14"/>
  <line fill="none" opacity="0.19" stroke="#1d1d1b" stroke-miterlimit="10" stroke-width="0.75" x1="104.95" y1="28.41" x2="107.98" y2="164.06"/>
  <path fill="none" opacity="0.19" stroke="#1d1d1b" stroke-miterlimit="10" stroke-width="0.75" d="M29.29,54.76s72.01-16.29,75.66-14.51"/>
  <path fill="none" opacity="0.19" stroke="#1d1d1b" stroke-miterlimit="10" stroke-width="0.75" d="M29.29,52.89s65.68-15.76,75.66-14.24"/>
  <path fill="none" opacity="0.19" stroke="#1d1d1b" stroke-miterlimit="10" stroke-width="0.75" d="M29.25,54.14s67.9-16.56,75.7-14.51"/>
  <path fill="#ffffff" stroke="#1d1d1b" stroke-miterlimit="10" stroke-width="0.75" d="M90.41,164.94c.17-8.62.38-24.37.57-34.64.25-15.27.5-29.91.51-30.35.23-.08.8.11.97-.13.28-1.28-.51-.54-.9-.93,0-.4.01-2.43.01-2.88.33-1.39,2.64-1.42,3.86-1.65,2.3-.41,35.94-7.88,44-9.57,2.78-.84,2.12,2.02,2.18,3.74-.07.37-.92.18-1.15.42-.29.9.46.74,1.05.75.3.73,1.21,74.22,1.33,75.13-.1.47.22,1.68-.21,2.09-.99.86-2.77.73-4.07.66-7.14-.06-26.81.1-35.79-.34-5.28-.19-9.17-.44-10.7-.88-.81.13-1.77-.48-1.68-1.43v-.02Z"/>
  <line fill="none" opacity="0.19" stroke="#1d1d1b" stroke-miterlimit="10" stroke-width="0.75" x1="91.49" y1="166.08" x2="93.33" y2="95"/>
  <line fill="none" opacity="0.19" stroke="#1d1d1b" stroke-miterlimit="10" stroke-width="0.75" x1="139.38" y1="84.81" x2="141.22" y2="167.38"/>
  <path fill="none" opacity="0.19" stroke="#1d1d1b" stroke-miterlimit="10" stroke-width="0.75" d="M93.33,100.85s43.83-9.91,46.05-8.83"/>
  <path fill="none" opacity="0.19" stroke="#1d1d1b" stroke-miterlimit="10" stroke-width="0.75" d="M93.33,99.71s39.98-9.59,46.05-8.67"/>
  <path fill="none" opacity="0.19" stroke="#1d1d1b" stroke-miterlimit="10" stroke-width="0.75" d="M93.31,100.47s41.33-10.08,46.08-8.83"/>
</svg>
