<?xml version="1.0" standalone="no"?>
<!DOCTYPE svg PUBLIC "-//W3C//DTD SVG 20010904//EN"
 "http://www.w3.org/TR/2001/REC-SVG-20010904/DTD/svg10.dtd">
<svg version="1.0" xmlns="http://www.w3.org/2000/svg"
 width="630.000000pt" height="709.000000pt" viewBox="0 0 630.000000 709.000000"
 preserveAspectRatio="xMidYMid meet">

<g transform="translate(0.000000,709.000000) scale(0.100000,-0.100000)"
fill="#000000" stroke="none">
<path d="M2265 6588 c-1432 -189 -1742 -233 -1753 -246 -11 -14 -12 -498 -10
-2614 2 -1428 5 -2599 8 -2601 6 -7 445 -51 1055 -107 487 -45 1238 -120 1243
-124 1 -2 5 -33 9 -69 l6 -66 36 -5 c50 -8 439 -40 926 -76 895 -66 1479 -122
1775 -169 33 -5 62 -5 73 0 16 9 17 111 17 1914 0 2121 6 1940 -68 1930 -20
-3 -300 -33 -622 -66 -322 -33 -652 -67 -733 -76 -81 -8 -149 -14 -152 -12 -2
2 -6 588 -9 1302 -3 714 -8 1302 -11 1308 -4 5 -16 8 -28 8 -12 -1 -805 -105
-1762 -231z m1783 -1093 c3 -1099 2 -1305 -10 -1305 -7 0 -272 -27 -587 -60
-316 -33 -582 -60 -592 -60 -10 0 -25 -7 -34 -16 -14 -15 -15 -155 -13 -1575
3 -1380 1 -1559 -12 -1559 -8 0 -141 13 -295 30 -154 16 -550 54 -880 85 -734
68 -1087 104 -1094 111 -3 3 -7 1171 -9 2595 -2 2139 -1 2590 10 2594 13 5
3453 462 3493 464 20 1 20 -6 23 -1304z m1577 -3065 c0 -1899 0 -1905 -20
-1903 -11 1 -128 16 -260 32 -327 41 -672 73 -1300 121 -737 56 -1156 90
-1181 95 -17 4 -22 15 -28 57 -9 80 -7 3206 2 3212 5 3 548 62 1208 130 659
69 1278 134 1374 145 96 10 182 18 190 17 13 -1 15 -220 15 -1906z"/>
</g>
</svg>
