<?xml version="1.0" standalone="no"?>
<!DOCTYPE svg PUBLIC "-//W3C//DTD SVG 20010904//EN"
 "http://www.w3.org/TR/2001/REC-SVG-20010904/DTD/svg10.dtd">
<svg version="1.0" xmlns="http://www.w3.org/2000/svg"
 width="650.000000pt" height="703.000000pt" viewBox="0 0 650.000000 703.000000"
 preserveAspectRatio="xMidYMid meet">

<g transform="translate(0.000000,703.000000) scale(0.100000,-0.100000)"
fill="#000000" stroke="none">
<path d="M3980 6519 c-19 -5 -377 -83 -795 -174 -418 -91 -1077 -235 -1465
-320 -388 -84 -739 -158 -780 -164 -104 -16 -162 -37 -194 -70 -26 -27 -27
-30 -24 -142 l3 -114 27 -3 c20 -2 28 -9 28 -23 0 -15 -7 -19 -30 -19 -17 0
-33 -6 -35 -12 -4 -11 -23 -1122 -66 -3771 -9 -513 -9 -714 -1 -732 15 -32 48
-52 97 -59 22 -4 65 -11 95 -16 73 -12 276 -27 540 -40 223 -11 1280 -29 1736
-30 l262 0 6 -25 c4 -14 16 -31 29 -39 63 -40 383 -55 1318 -63 786 -6 818 -5
849 32 9 11 8 266 -4 1087 -20 1346 -36 2129 -42 2140 -3 4 -15 8 -27 9 -20 1
-19 2 6 12 25 10 27 14 27 73 0 73 -15 112 -45 120 -12 3 -291 -54 -621 -126
-329 -72 -615 -134 -635 -137 l-36 -5 -6 493 c-11 785 -28 1617 -35 1704 -7
76 -8 80 -32 83 -46 6 -54 11 -40 27 7 8 22 15 34 15 38 0 46 19 46 105 0 176
-46 221 -190 184z m139 -28 c23 -23 33 -83 29 -171 l-3 -64 -37 -9 c-62 -15
-60 -77 2 -77 l28 0 6 -97 c9 -148 27 -1209 29 -1723 l2 -455 -240 -52 c-132
-29 -286 -61 -342 -72 -123 -22 -148 -36 -156 -88 -13 -74 -9 -111 13 -118 11
-3 20 -11 20 -16 0 -5 -9 -9 -20 -9 -17 0 -20 -7 -20 -52 0 -69 -29 -1810 -38
-2273 l-7 -360 -710 3 c-1085 4 -1554 23 -1929 78 -35 5 -75 29 -83 50 -6 16
0 438 42 2919 14 792 25 1468 25 1502 l0 62 33 3 c28 3 32 7 35 36 3 29 0 33
-27 38 l-31 7 0 104 c0 98 1 105 25 127 28 26 72 41 170 56 95 14 1331 282
2900 628 210 46 257 50 284 23z m1391 -2350 c5 -11 10 -45 10 -76 0 -50 -2
-56 -26 -65 -31 -12 -29 -44 4 -48 17 -3 22 -10 22 -35 0 -18 4 -250 10 -517
5 -267 17 -970 26 -1564 15 -996 15 -1080 -1 -1095 -14 -14 -87 -16 -768 -15
-716 1 -1095 11 -1260 34 -92 13 -105 18 -115 38 -5 9 -5 220 -1 467 4 248 12
756 18 1130 6 374 14 780 17 902 6 206 8 223 25 228 25 8 25 45 -1 52 -17 5
-20 14 -20 63 0 39 5 64 15 74 16 16 76 36 108 36 13 0 1731 372 1862 403 43
10 65 6 75 -12z"/>
</g>
</svg>
