<?xml version="1.0" encoding="UTF-8"?>
<svg id="Capa_1" data-name="Capa 1" xmlns="http://www.w3.org/2000/svg" viewBox="0 0 169.98 186.28">
  <g>
    <polygon points="127.1 126.18 135.8 136.43 125.37 135.4 127.1 126.18"
      fill="#ffffff"
      stroke="#1d1d1b"
      stroke-width="0.75"
      stroke-miterlimit="10"/>
    
    <path d="M7.68,51.41v4.76h1.35l.43.43-.57.43h-1.21v69.07l-3.45,3.63v6.4l.85,1.81s54.92,3.41,88.73,3.95l22.82-4.69,12.69-2.67-1.28-3.63.57-86.71h-2.7l-.75-.64.85-.85h2.56l.14-2.33L7.68,51.41Z"
      fill="#ffffff"
      stroke="#1d1d1b"
      stroke-width="0.75"
      stroke-miterlimit="10"/>

    <rect x="50.01" y="51.91" width="30.67" height="8.43" rx="4.21" ry="4.21"
      transform="translate(-2.86 3.51) rotate(-3.01)"
      fill="#ffffff"
      stroke="#1d1d1b"
      stroke-width="0.75"
      stroke-miterlimit="10"/>

    <polyline points="124.13 41.11 123.68 66.43 123.15 131.76 90.3 139.33 6.9 135.65 6.9 131.54 9.78 128.02 10.4 51.87"
      fill="none"
      opacity="0.22"
      stroke="#1d1d1b"
      stroke-width="0.75"
      stroke-miterlimit="10"/>

    <line x1="7.82" y1="72.48" x2="128.49" y2="65.68"
      fill="none"
      opacity="0.22"
      stroke="#1d1d1b"
      stroke-width="0.75"
      stroke-miterlimit="10"/>

    <line x1="7.82" y1="70.99" x2="128.49" y2="64.21"
      fill="none"
      opacity="0.22"
      stroke="#1d1d1b"
      stroke-width="0.75"
      stroke-miterlimit="10"/>

    <line x1="7.68" y1="69.79" x2="128.49" y2="62.82"
      fill="none"
      opacity="0.22"
      stroke="#1d1d1b"
      stroke-width="0.75"
      stroke-miterlimit="10"/>
  </g>
  <g>
    <polygon points="160.54 134.66 165.75 140.8 159.5 140.19 160.54 134.66"
      fill="#ffffff"
      stroke="#1d1d1b"
      stroke-width="0.75"
      stroke-miterlimit="10"/>

    <path d="M89.02,89.89v2.85h.81l.26.26-.34.26h-.72v41.37l-2.07,2.17v3.83l.51,1.09s32.89,2.04,53.14,2.36l13.67-2.81,7.6-1.6-.77-2.17.34-51.93h-1.62l-.45-.38.51-.51h1.53l.08-1.4-72.49,6.61Z"
      fill="#ffffff"
      stroke="#1d1d1b"
      stroke-width="0.75"
      stroke-miterlimit="10"/>

    <rect x="114.37" y="90.19" width="18.37" height="5.05" rx="2.52" ry="2.52"
      transform="translate(-4.7 6.61) rotate(-3.01)"
      fill="#ffffff"
      stroke="#1d1d1b"
      stroke-width="0.75"
      stroke-miterlimit="10"/>

    <polyline points="158.76 83.72 158.49 98.88 158.17 138 138.5 142.54 88.55 140.33 88.55 137.88 90.28 135.77 90.65 90.16"
      fill="none"
      opacity="0.22"
      stroke="#1d1d1b"
      stroke-width="0.75"
      stroke-miterlimit="10"/>

    <line x1="89.1" y1="102.5" x2="161.37" y2="98.43"
      fill="none"
      opacity="0.22"
      stroke="#1d1d1b"
      stroke-width="0.75"
      stroke-miterlimit="10"/>

    <line x1="89.1" y1="101.61" x2="161.37" y2="97.55"
      fill="none"
      opacity="0.22"
      stroke="#1d1d1b"
      stroke-width="0.75"
      stroke-miterlimit="10"/>

    <line x1="89.02" y1="100.9" x2="161.37" y2="96.72"
      fill="none"
      opacity="0.22"
      stroke="#1d1d1b"
      stroke-width="0.75"
      stroke-miterlimit="10"/>
  </g>
</svg>
