<?xml version="1.0" encoding="UTF-8"?>
<svg id="Capa_1" data-name="Capa 1" xmlns="http://www.w3.org/2000/svg" viewBox="0 0 169.98 186.28">
  <g>
    <path
      fill="#ffffff"
      stroke="#1d1d1b"
      stroke-miterlimit="10"
      stroke-width="0.75"
      d="M146.07,24l10.91,74.86-6.6,5.08s-35.27,17-46.69,22.84c-11.42,5.84-27.15,17.26-27.15,17.26l-5.08,3.05-2.54-1.27-1.27,2.03v1.27l-4.82,2.79L3.71,124.74l3.81-2.54,2.28,1.27,2.79-2.03-2.03-1.78,64.71-45.17,37.3-27.41s24.36-18.27,33.5-23.09Z" />
    <line
      fill="none"
      opacity="0.17"
      stroke="#1d1d1b"
      stroke-miterlimit="10"
      stroke-width="0.75"
      x1="14.64" y1="117.12" x2="75.04" y2="144.27" />
    <path
      fill="none"
      opacity="0.17"
      stroke="#1d1d1b"
      stroke-miterlimit="10"
      stroke-width="0.75"
      d="M36.19,139.66l10.95-7.92s2.69-29.69,47.43-65.74c44.74-36.05,44.41-38.19,44.41-38.19l11.93,76.38" />
    <path
      fill="none"
      opacity="0.17"
      stroke="#1d1d1b"
      stroke-miterlimit="10"
      stroke-width="0.75"
      d="M30.9,137.22l10.37-8.13s.02-37.6,97.71-101.29" />
  </g>
  <g>
    <path
      fill="#ffffff"
      stroke="#1d1d1b"
      stroke-miterlimit="10"
      stroke-width="0.75"
      d="M159.37,67.92l6.9,57.6-4.17,3.91s-22.29,13.08-29.51,17.57-17.16,13.28-17.16,13.28l-3.21,2.34-1.6-.98-.8,1.56v.98l-3.05,2.15-37.37-20.89,2.41-1.95,1.44.98,1.76-1.56-1.28-1.37,40.9-34.76,23.58-21.09s15.4-14.06,21.17-17.77Z" />
    <line
      fill="none"
      opacity="0.17"
      stroke="#1d1d1b"
      stroke-miterlimit="10"
      stroke-width="0.75"
      x1="76.3" y1="139.57" x2="114.47" y2="160.47" />
    <path
      fill="none"
      opacity="0.17"
      stroke="#1d1d1b"
      stroke-miterlimit="10"
      stroke-width="0.75"
      d="M89.92,156.91l6.92-6.1s1.7-22.85,29.98-50.59c28.28-27.74,28.07-29.39,28.07-29.39l7.54,58.77" />
    <path
      fill="none"
      opacity="0.17"
      stroke="#1d1d1b"
      stroke-miterlimit="10"
      stroke-width="0.75"
      d="M86.57,155.04l6.55-6.26s.01-28.93,61.76-77.94" />
  </g>
</svg>
