<?xml version="1.0" encoding="UTF-8"?>
<svg xmlns="http://www.w3.org/2000/svg" viewBox="0 0 169.98 186.28">
  <g>
    <path fill="#ffffff" stroke="#1d1d1b" stroke-miterlimit="10" stroke-width="0.75" d="M78.5,170.24c7.23-2.09,14.45-4.19,21.68-6.28-1.61-1.52-1.5-4.07-1.29-6.27,3.36-35.81.27-72.21-9.05-106.94-2.1,5.16-4.19,10.33-6.29,15.49s-2.64,10.22-3.48,15.64c-1.74,11.19-3.47,22.38-5.21,33.57-.43,2.8-.87,5.6-.96,8.43-.11,3.27.25,6.54.61,9.79,1.33,12.19,2.66,24.39,3.99,36.58Z"/>
    <path fill="#ffffff" stroke="#1d1d1b" stroke-miterlimit="10" stroke-width="0.75" d="M89.75,25.54v7.14c-.61,0-1.22,0-1.83,0v2.01c.59,0,1.18,0,1.77,0,.2,5.23.4,10.5-.38,15.67-.49,3.26-1.37,6.44-2.19,9.63-8.39,32.59-10.86,66.7-7.23,100.16.3,2.73.62,5.55-.25,8.15-.22.66-.56,1.34-1.17,1.69-.63.36-1.41.28-2.14.19-17.96-2.24-35.93-4.47-53.89-6.71,2.59-3.39,2.06-8.13,1.54-12.37-3.75-30.45-.58-61.73,9.19-90.81.71-2.13,1.47-4.25,1.87-6.45.94-5.1,0-10.34.13-15.52.9.46,2.13-.53,1.87-1.51-.63.03-1.25.06-1.88.09.24,0-.35-6.63.08-7.1s2.69-.28,3.34-.33l4.09-.32,15.69-1.21c10.46-.81,20.92-1.61,31.38-2.42Z"/>
    <path fill="none" stroke="#1d1d1b" stroke-miterlimit="10" stroke-width="0.75" opacity="0.1" d="M85.17,25.54l.55,26.46-5.22,16.35-4.67,26.51-2.06,13.32,1.1,56.18s-.27,4.53-1.1,4.53"/>
    <path fill="none" stroke="#1d1d1b" stroke-miterlimit="10" stroke-width="0.75" opacity="0.1" d="M38.06,30.02v23.63l-4.94,15.25-6.59,38.32v51.37s-.41,5.22-1.51,4.81"/>
    <polygon fill="none" stroke="#1d1d1b" stroke-miterlimit="10" stroke-width="0.75" opacity="0.1" points="84.38 43.07 39.15 45.82 39.15 41.43 84.38 38.4 84.38 43.07"/>
    <line fill="none" stroke="#1d1d1b" stroke-miterlimit="10" stroke-width="0.75" opacity="0.1" x1="83.9" y1="40.59" x2="39.67" y2="43.35"/>
    <polyline fill="none" stroke="#1d1d1b" stroke-miterlimit="10" stroke-width="0.75" opacity="0.1" points="89.38 52.83 87.37 87.62 95.06 109.42 95.06 140.37 94.15 158.87 79.75 163.42"/>
    <polygon fill="#1d1d1b" opacity="0.1" points="80.59 95.22 86.92 86.91 87.68 88.97 80.04 98.96 80.59 95.22"/>
    <path fill="#ffffff" d="M86.81,87.68l.45,1.22-6.63,8.67.32-2.21,5.86-7.69Z"/>
  </g>
  <g>
    <path fill="#ffffff" stroke="#1d1d1b" stroke-miterlimit="10" stroke-width="0.75" d="M129.23,174.51c5.84-1.35,11.68-2.7,17.53-4.05-1.3-.98-1.21-2.62-1.05-4.04,2.71-23.08.22-46.54-7.32-68.92-1.69,3.33-3.39,6.65-5.08,9.98s-2.13,6.59-2.81,10.08c-1.4,7.21-2.81,14.42-4.21,21.64-.35,1.8-.7,3.61-.78,5.43-.08,2.11.2,4.21.49,6.31,1.08,7.86,2.15,15.72,3.23,23.58Z"/>
    <path fill="#ffffff" stroke="#1d1d1b" stroke-miterlimit="10" stroke-width="0.75" d="M138.32,81.25c0,1.53,0,3.07,0,4.6h-1.48c0,.44,0,.87,0,1.3h1.43c.16,3.37.33,6.77-.31,10.1-.4,2.1-1.11,4.15-1.77,6.2-6.79,21-8.78,42.99-5.85,64.55.24,1.76.5,3.58-.2,5.25-.18.43-.45.87-.94,1.09-.51.23-1.14.18-1.73.12-14.52-1.44-29.05-2.88-43.57-4.33,2.09-2.19,1.67-5.24,1.24-7.97-3.03-19.63-.47-39.79,7.43-58.53.58-1.37,1.18-2.74,1.51-4.16.76-3.28,0-6.66.11-10,.73.3,1.72-.34,1.51-.97-.51.02-1.01.04-1.52.06.2,0-.28-4.27.06-4.57s2.18-.18,2.7-.21l3.31-.2c4.23-.26,8.46-.52,12.69-.78,8.46-.52,16.91-1.04,25.37-1.56Z"/>
    <path fill="none" stroke="#1d1d1b" stroke-miterlimit="10" stroke-width="0.75" opacity="0.1" d="M134.62,81.25l.44,17.06-4.22,10.53-3.78,17.09-1.67,8.59.89,36.21s-.22,2.92-.89,2.92"/>
    <path fill="none" stroke="#1d1d1b" stroke-miterlimit="10" stroke-width="0.75" opacity="0.1" d="M96.53,84.14v15.23l-4,9.83-5.33,24.7v33.11s-.33,3.36-1.22,3.1"/>
    <polygon fill="none" stroke="#1d1d1b" stroke-miterlimit="10" stroke-width="0.75" opacity="0.1" points="133.98 92.55 97.42 94.32 97.42 91.49 133.98 89.54 133.98 92.55"/>
    <line fill="none" stroke="#1d1d1b" stroke-miterlimit="10" stroke-width="0.75" opacity="0.1" x1="133.59" y1="90.95" x2="97.83" y2="92.73"/>
    <polyline fill="none" stroke="#1d1d1b" stroke-miterlimit="10" stroke-width="0.75" opacity="0.1" points="138.03 98.83 136.4 121.26 142.62 135.31 142.62 155.26 141.88 167.18 130.23 170.11"/>
    <polygon fill="#1d1d1b" opacity="0.1" points="130.85 126.08 136.05 120.64 136.75 122.16 130.35 128.84 130.85 126.08"/>
    <path fill="#ffffff" d="M135.94,121.3l.36.79-5.36,5.59.26-1.42,4.74-4.96Z"/>
  </g>
  <line fill="none" stroke="#1d1d1b" stroke-miterlimit="10" stroke-width="0.75" opacity="0.1" x1="26.7" y1="160.9" x2="74.13" y2="166.28"/>
  <line fill="none" stroke="#1d1d1b" stroke-miterlimit="10" stroke-width="0.75" opacity="0.1" x1="87.73" y1="167" x2="125.69" y2="170.72"/>
</svg>
