<?xml version="1.0" encoding="UTF-8"?>
<svg version="1.1" xmlns="http://www.w3.org/2000/svg" width="781" height="384" viewBox="0 0 781 384">
<path d="M0 0 C3.95600203 3.69451788 3.59925908 7.98702788 3.875 13.10546875 C4.56492449 34.60092875 2.61485792 54.00689737 -6.87890625 73.5859375 C-7.95444705 75.90191037 -8.77001499 78.20042424 -9.5625 80.625 C-11 84 -11 84 -12.71484375 84.82421875 C-15.82717481 85.06362883 -18.05553093 84.20868229 -21 83.1875 C-71.12109785 67.10882923 -126.28687438 87.42255763 -173.73577881 103.59588623 C-191.37079087 109.6042441 -209.01048313 115.4527005 -226.93359375 120.55078125 C-227.6509564 120.75502024 -228.36831905 120.95925922 -229.10741997 121.16968727 C-250.46656438 127.22518556 -271.970358 132.11432804 -294 135 C-294.80211914 135.10602539 -295.60423828 135.21205078 -296.43066406 135.32128906 C-305.27438025 136.30392419 -314.17433292 136.15052716 -323.06005859 136.13037109 C-325.86170904 136.12502536 -328.66319826 136.13033463 -331.46484375 136.13671875 C-346.39512012 136.14135924 -346.39512012 136.14135924 -353.484375 135.4765625 C-358.97839836 134.97870794 -364.38971052 134.98481507 -369.8984375 135.078125 C-398.33594547 135.54439677 -425.81573014 133.67302217 -454 130 C-456.48858552 129.68017311 -458.97719314 129.36051825 -461.46582031 129.04101562 C-493.04264434 124.96513699 -524.54206871 120.40742855 -556 115.5 C-556.70787029 115.3898267 -557.41574059 115.2796534 -558.14506149 115.16614151 C-562.80612859 114.44044251 -567.46590043 113.70697847 -572.125 112.96875 C-573.30498062 112.78374435 -574.48496124 112.59873871 -575.70069885 112.40812683 C-576.77142136 112.2367067 -577.84214386 112.06528656 -578.9453125 111.88867188 C-579.87875488 111.7403894 -580.81219727 111.59210693 -581.77392578 111.43933105 C-584 111 -584 111 -586 110 C-580.85109896 82.0652906 -567.0366872 57.33496021 -553 33 C-549.76675122 33.62993223 -547.52906798 34.76927139 -544.79248047 36.58520508 C-543.96996796 37.12699905 -543.14745544 37.66879303 -542.30001831 38.227005 C-541.41468414 38.81853867 -540.52934998 39.41007233 -539.6171875 40.01953125 C-538.68891144 40.63334152 -537.76063538 41.24715179 -536.80422974 41.87956238 C-533.82425515 43.85188905 -530.84960242 45.83208288 -527.875 47.8125 C-525.92612317 49.10403172 -523.97690773 50.39505264 -522.02734375 51.68554688 C-512.31312514 58.12033811 -502.61908248 64.5854197 -492.92503357 71.05053711 C-440.44112617 106.07254751 -440.44112617 106.07254751 -382 129 C-380.97374512 129.29874023 -380.97374512 129.29874023 -379.92675781 129.60351562 C-335.38557685 142.18137459 -271.77995777 107.76613138 -233.37402344 86.54931641 C-229.61602337 84.44006986 -225.87010059 82.31034525 -222.12963867 80.17016602 C-213.29006208 75.12202228 -204.33130648 70.30925181 -195.34716797 65.52563477 C-188.98578228 62.13779939 -182.64356422 58.71998384 -176.33178711 55.24047852 C-128.65278121 28.98627711 -79.68182313 11.11298546 -26 2 C-24.49542236 1.74210693 -24.49542236 1.74210693 -22.96044922 1.47900391 C-20.20492995 1.01302765 -17.44739865 0.56421579 -14.6875 0.125 C-13.88795898 -0.00737061 -13.08841797 -0.13974121 -12.26464844 -0.27612305 C-7.97028145 -0.92623474 -4.23057616 -1.31229098 0 0 Z " fill="#FFFFFF" transform="translate(630,223)"/>
<path d="M0 0 C2.87334858 2.42534107 5.70306481 4.89651927 8.51074219 7.39746094 C10.00059616 8.71976584 11.50792728 10.02229605 13.015625 11.32421875 C13.91023437 12.10539062 14.80484375 12.8865625 15.7265625 13.69140625 C16.49355469 14.36042969 17.26054688 15.02945313 18.05078125 15.71875 C25.64640698 23.49344746 25.33133338 33.76035226 25.234375 44.0078125 C25.23013016 45.72000221 25.23013016 45.72000221 25.22579956 47.46678162 C25.21467726 51.08343348 25.18958731 54.69983026 25.1640625 58.31640625 C25.15402243 60.78059536 25.14489838 63.24478839 25.13671875 65.70898438 C25.114764 71.72404417 25.08136624 77.73895698 25.0390625 83.75390625 C18.31214715 80.52519485 13.84406457 74.58673976 9.01953125 69.02734375 C-3.98811463 54.0954899 -18.05814503 40.57964365 -33.9609375 28.75390625 C-34.79890869 28.12258789 -34.79890869 28.12258789 -35.65380859 27.47851562 C-42.30110551 22.48873149 -49.13776628 17.89279408 -56.2734375 13.62890625 C-56.88743408 13.25757568 -57.50143066 12.88624512 -58.1340332 12.50366211 C-71.45310824 4.72875471 -85.93353373 -1.0659651 -100.2109375 -6.80859375 C-101.42250015 -7.29691681 -101.42250015 -7.29691681 -102.65853882 -7.79510498 C-167.52859086 -33.88518226 -228.1304517 -29.71418986 -295.29785156 -15.03662109 C-298.4277425 -14.36116209 -301.56142789 -13.72667695 -304.703125 -13.109375 C-318.59991401 -10.22439674 -330.57391478 -4.02597898 -342.9609375 2.75390625 C-343.92435059 3.28081055 -344.88776367 3.80771484 -345.88037109 4.35058594 C-354.63773859 9.17495049 -363.2952904 14.16523988 -371.89453125 19.265625 C-394.15344505 32.45333748 -416.81346309 43.44789088 -440.9609375 52.75390625 C-441.95577148 53.14143066 -442.95060547 53.52895508 -443.97558594 53.92822266 C-457.57295764 59.18268438 -471.41037579 63.49615658 -485.3984375 67.56640625 C-486.1886026 67.7974707 -486.9787677 68.02853516 -487.7928772 68.26660156 C-496.39082347 70.76935214 -505.01381611 73.08910714 -513.74609375 75.078125 C-514.48266708 75.24899124 -515.21924042 75.41985748 -515.97813416 75.59590149 C-520.03442046 76.48972108 -523.80777052 77.05850043 -527.9609375 76.75390625 C-529.99761365 75.20884159 -530.82166828 74.03244469 -531.9609375 71.75390625 C-533.88467887 55.40210458 -522.41379537 39.38120668 -513.27514648 26.94189453 C-508.89686913 20.92433009 -505.57602997 14.72748618 -502.9609375 7.75390625 C-500.07037786 8.29588618 -497.29250139 8.944888 -494.4609375 9.75390625 C-479.01565751 13.63695976 -462.47292851 11.8242362 -446.88671875 9.84765625 C-445.24767249 9.64497863 -443.60857721 9.44269715 -441.96943665 9.24078369 C-437.62900135 8.70278567 -433.29026056 8.15223046 -428.952034 7.59672546 C-426.26281936 7.25254729 -423.57329409 6.91087797 -420.88372803 6.56945801 C-396.05435084 3.40784039 -371.34418165 0.00660034 -346.88427734 -5.390625 C-343.19821281 -6.20380876 -339.49831828 -6.93178681 -335.79296875 -7.65234375 C-322.58125884 -10.34714746 -311.32033541 -15.02516766 -299.3125 -21.09765625 C-216.28517978 -62.90573948 -116.49941342 -70.31063845 0 0 Z " fill="#FFFFFF" transform="translate(616.9609375,73.24609375)"/>
<path d="M0 0 C16.29375 -0.061875 32.5875 -0.12375 49.375 -0.1875 C54.50466309 -0.21481201 59.63432617 -0.24212402 64.91943359 -0.27026367 C71.22192383 -0.28381348 71.22192383 -0.28381348 74.17984009 -0.28633118 C76.22942055 -0.29091389 78.27899333 -0.30141496 80.32852173 -0.31672668 C83.44750854 -0.33884726 86.56600451 -0.34171265 89.68505859 -0.34057617 C90.58591375 -0.3513705 91.48676891 -0.36216482 92.41492271 -0.37328625 C102.46204845 -0.32463581 111.30509168 2.43501316 119 9 C131.2315653 21.83589165 133.56925192 38.40432853 133.375 55.5625 C133.36557373 56.86517822 133.35614746 58.16785645 133.34643555 59.51000977 C133.06200126 77.92118042 131.85443725 98.98402143 120.234375 114.16796875 C111.66391246 121.1951487 101.99477185 120.52748257 91.49609375 120.390625 C89.80502495 120.3831531 88.11394742 120.37746466 86.42286682 120.37347412 C81.99876476 120.35829234 77.57519838 120.3190762 73.15130615 120.2746582 C68.62633508 120.23354338 64.1012764 120.21542868 59.57617188 120.1953125 C50.71721417 120.15257358 41.85865185 120.08441414 33 120 C33.00523682 120.95777344 33.01047363 121.91554688 33.01586914 122.90234375 C33.03409943 126.48810882 33.04549732 130.07386987 33.05493164 133.65966797 C33.05993092 135.20557344 33.06673253 136.75147425 33.07543945 138.29736328 C33.08769956 140.53158728 33.09327249 142.76574826 33.09765625 145 C33.10281754 145.68054443 33.10797882 146.36108887 33.11329651 147.06225586 C33.11384579 151.86254672 32.60542348 156.15661219 32 161 C21.44 161 10.88 161 0 161 C0 107.87 0 54.74 0 0 Z M33 40 C33 53.86 33 67.72 33 82 C40.33937451 82.08395853 47.67700325 82.16408381 55.01644135 82.20700073 C58.43442903 82.22809591 61.8520179 82.25626967 65.26977539 82.30175781 C69.19412369 82.35365959 73.11831096 82.37296922 77.04296875 82.390625 C78.26396774 82.41127014 79.48496674 82.43191528 80.7429657 82.45318604 C81.8837709 82.45348816 83.02457611 82.45379028 84.19995117 82.45410156 C85.7021949 82.46742523 85.7021949 82.46742523 87.23478699 82.48101807 C90.7832915 81.86374382 92.42472003 80.47022325 95 78 C100.06885401 69.49156648 99.72191083 58.74135161 97.6640625 49.31640625 C96.61763707 45.66622815 95.52247226 42.96510873 92.25384521 40.89309692 C89.47292208 39.79114286 87.30419208 39.75971596 84.31347656 39.77294922 C83.17259583 39.77310028 82.03171509 39.77325134 80.85626221 39.77340698 C79.01702179 39.78889084 79.01702179 39.78889084 77.140625 39.8046875 C75.88111023 39.8075174 74.62159546 39.81034729 73.32391357 39.81326294 C69.98326098 39.82255879 66.64288331 39.84051417 63.30230713 39.8626709 C59.89036472 39.88316792 56.47839301 39.89238262 53.06640625 39.90234375 C46.37744964 39.92269967 39.68897361 39.96184996 33 40 Z " fill="#FFFFFF" transform="translate(254,98)"/>
<path d="M0 0 C9.59111446 6.90245779 16.07828556 16.60517931 18.13671875 28.3828125 C19.51939532 41.485319 17.60349765 54.55656814 9.4765625 65.21484375 C2.23481824 73.78254118 -6.40773861 79.81493716 -17.6171875 81.71484375 C-31.7113792 82.88394721 -42.79349227 79.8742833 -53.8125 70.93359375 C-62.2517286 63.10404326 -67.33678797 52.91269899 -67.953125 41.3828125 C-68.20590107 28.72166397 -66.01767449 19.2008758 -58.6171875 8.71484375 C-58.0603125 7.86921875 -57.5034375 7.02359375 -56.9296875 6.15234375 C-41.69027213 -9.9108238 -18.28909258 -11.72451233 0 0 Z M-49.6171875 14.71484375 C-55.94446886 24.15946861 -57.77549911 34.62175689 -55.6171875 45.71484375 C-53.08972282 54.986793 -47.59753964 62.32810606 -39.6171875 67.71484375 C-32.07562638 71.70743493 -24.06142658 72.72181841 -15.76953125 70.4921875 C-7.20528706 67.39911201 -0.32104323 61.07698461 3.7734375 52.95703125 C7.70200657 42.58228898 8.04147373 31.53436339 3.69921875 21.24609375 C-0.78839481 12.61709201 -7.13207878 6.15987926 -16.56640625 3.078125 C-29.85266576 0.72455903 -40.77063963 4.57453196 -49.6171875 14.71484375 Z " fill="#FFFFFF" transform="translate(731.6171875,22.28515625)"/>
<path d="M0 0 C-0.556342 5.50560409 -2.56627103 9.70371048 -5.015625 14.5703125 C-5.62681435 15.80929291 -5.62681435 15.80929291 -6.25035095 17.07330322 C-7.12384278 18.84255185 -8.00073387 20.61012559 -8.88070679 22.37615967 C-11.18814976 27.00832483 -13.46998674 31.65307857 -15.75390625 36.296875 C-16.20796341 37.21862518 -16.66202057 38.14037537 -17.12983704 39.09005737 C-20.92246617 46.8036682 -24.59317835 54.56731315 -28.1875 62.375 C-28.69659912 63.48085449 -29.20569824 64.58670898 -29.73022461 65.72607422 C-30.69398606 67.82140126 -31.65730671 69.91693113 -32.62011719 72.01269531 C-36.01884386 79.37058979 -39.51775815 86.68139001 -43 94 C-50.59 94 -58.18 94 -66 94 C-61.56295425 81.71279638 -56.54561467 69.8271175 -51 58 C-50.65678711 57.2668457 -50.31357422 56.53369141 -49.95996094 55.77832031 C-40.47165915 35.69799445 -27.2253696 14.24658486 -9 1 C-5.8035914 -0.06546953 -3.34252724 -0.07427838 0 0 Z " fill="#FFFFFF" transform="translate(501,165)"/>
<path d="M0 0 C6.93 0 13.86 0 21 0 C21.57967529 1.59803467 22.15935059 3.19606934 22.7565918 4.8425293 C24.69135516 10.17531669 26.62728178 15.50768084 28.5639677 20.83977032 C29.73592267 24.06652856 30.90743785 27.29344494 32.07788086 30.52075195 C33.42944597 34.24740945 34.78304472 37.97332676 36.13671875 41.69921875 C36.75422249 43.40316048 36.75422249 43.40316048 37.38420105 45.14152527 C37.78423843 46.24168472 38.18427582 47.34184418 38.59643555 48.4753418 C38.9846347 49.54819427 39.37283386 50.62104675 39.77279663 51.72640991 C40.62592097 54.00213654 41.5217009 56.26214134 42.45010376 58.50820923 C42.91749969 59.6460788 43.38489563 60.78394836 43.86645508 61.95629883 C44.5141259 63.48170036 44.5141259 63.48170036 45.17488098 65.03791809 C46.6083893 70.18404726 45.1848712 74.17732664 42.71484375 78.7421875 C42.26689453 79.58007812 41.81894531 80.41796875 41.35742188 81.28125 C40.88884766 82.1371875 40.42027344 82.993125 39.9375 83.875 C39.46505859 84.75414062 38.99261719 85.63328125 38.50585938 86.5390625 C37.34481926 88.69695524 36.17607732 90.85027708 35 93 C34.34 93 33.68 93 33 93 C32.67950684 92.04786621 32.35901367 91.09573242 32.02880859 90.11474609 C25.75885707 71.51662814 19.35643141 52.97644795 12.5625 34.5625 C12.27630798 33.78501404 11.99011597 33.00752808 11.69525146 32.20648193 C8.31065506 23.02459195 4.80286277 13.91031458 1.08178711 4.85913086 C0 2 0 2 0 0 Z " fill="#FFFFFF" transform="translate(395,159)"/>
<path d="M0 0 C1.03318359 -0.020625 2.06636719 -0.04125 3.13085938 -0.0625 C9.66845547 -0.09604764 14.50168801 0.28389919 19.5 4.9375 C21.22616015 8.29896976 21.81538043 11.47376613 21.6875 15.25 C20.09919583 19.01177303 18.07876887 21.02813419 14.6875 23.25 C15.285625 23.86875 15.88375 24.4875 16.5 25.125 C19.39619224 29.26241748 20.44711572 33.39855615 21.6875 38.25 C21.89503906 39.05050781 22.10257813 39.85101563 22.31640625 40.67578125 C22.78745984 42.53034887 23.23964836 44.38969319 23.6875 46.25 C19.7275 46.25 15.7675 46.25 11.6875 46.25 C11.19830078 44.66058594 11.19830078 44.66058594 10.69921875 43.0390625 C10.2583719 41.6508639 9.81693482 40.26285263 9.375 38.875 C9.16166016 38.17632812 8.94832031 37.47765625 8.72851562 36.7578125 C7.29222273 32.25184841 7.29222273 32.25184841 3.6875 29.25 C1.3775 28.92 -0.9325 28.59 -3.3125 28.25 C-3.3125 34.19 -3.3125 40.13 -3.3125 46.25 C-6.9425 46.25 -10.5725 46.25 -14.3125 46.25 C-14.3125 31.4 -14.3125 16.55 -14.3125 1.25 C-9.62655788 -0.31198071 -4.90808823 0.02422252 0 0 Z M-3.3125 8.25 C-3.3125 12.21 -3.3125 16.17 -3.3125 20.25 C1.23555635 20.42835515 4.5669254 20.24785435 8.6875 18.25 C9.0175 15.94 9.3475 13.63 9.6875 11.25 C7.7248772 9.20204577 6.2597693 8.30023362 3.41796875 8.05078125 C1.17352163 8.06138494 -1.07020893 8.15107539 -3.3125 8.25 Z " fill="#FFFFFF" transform="translate(704.3125,36.75)"/>
</svg>
